<?xml version="1.0" encoding="utf-8"?>
<!-- Generator: Adobe Illustrator 15.1.0, SVG Export Plug-In . SVG Version: 6.00 Build 0)  -->
<!DOCTYPE svg PUBLIC "-//W3C//DTD SVG 1.0//EN" "http://www.w3.org/TR/2001/REC-SVG-20010904/DTD/svg10.dtd">
<svg version="1.0" id="icon" xmlns="http://www.w3.org/2000/svg" xmlns:xlink="http://www.w3.org/1999/xlink" x="0px" y="0px"
	 width="64px" height="64px" viewBox="0 0 64 64" enable-background="new 0 0 64 64" xml:space="preserve">
<g>
	<path fill="#231F20" d="M47.75,27.5V50h-18v-2.25h-13.5V18.5h9c0-0.609,0.12-1.189,0.36-1.74s0.562-1.028,0.967-1.433
		s0.879-0.727,1.424-0.967S29.129,14,29.75,14c0.609,0,1.189,0.12,1.74,0.36s1.028,0.562,1.433,0.967s0.727,0.882,0.967,1.433
		s0.36,1.131,0.36,1.74h9v9H47.75z M29.75,45.5v-18H41v-6.75h-2.25v4.5h-18v-4.5H18.5V45.5H29.75z M23,20.75V23h13.5v-2.25H32
		c0-0.293,0.006-0.606,0.018-0.94s0.006-0.668-0.018-1.002s-0.073-0.656-0.149-0.967s-0.196-0.583-0.36-0.817
		s-0.387-0.422-0.668-0.562s-0.639-0.211-1.072-0.211c-0.656,0-1.14,0.152-1.45,0.457s-0.527,0.683-0.65,1.134
		s-0.179,0.94-0.167,1.468S27.5,20.316,27.5,20.75H23z M45.5,29.75H32v18h13.5V29.75z"/>
</g>
</svg>
