<?xml version="1.0" encoding="utf-8"?>
<!-- Svg Vector Icons : http://www.onlinewebfonts.com/icon -->
<!DOCTYPE svg PUBLIC "-//W3C//DTD SVG 1.1//EN" "http://www.w3.org/Graphics/SVG/1.1/DTD/svg11.dtd">
<svg version="1.1" xmlns="http://www.w3.org/2000/svg" xmlns:xlink="http://www.w3.org/1999/xlink" x="0px" y="0px" viewBox="0 0 256 256" enable-background="new 0 0 256 256" xml:space="preserve">
<metadata> Svg Vector Icons : http://www.onlinewebfonts.com/icon </metadata>
<g><g><path fill="#000000" d="M134.7,69h12.6c3.7,0,6.7-3,6.7-6.7V30.9c0-3.7-3-6.7-6.7-6.7h-12.6c-3.7,0-6.7,3-6.7,6.7v31.4C128,66,131,69,134.7,69z"/><path fill="#000000" d="M29.8,246h196.3c11,0,19.8-9,19.8-20V53.6c-8.6-8.6-35.6-35.8-43.5-43.6H29.8C18.9,10,10,19,10,30V226C10,237,18.9,246,29.8,246z M45.4,238.9v-26h165.2v26H45.4z M45.4,210.6v-28.3h165.2v28.3H45.4z M45.4,17.1h122.7v48c0,7.4-6,13.4-13.4,13.4H58.8c-7.4,0-13.4-6-13.4-13.4V17.1z M52.5,146.9h151c3.9,0,7.1,3.2,7.1,7.1v25.9H45.4V154C45.4,150,48.6,146.9,52.5,146.9z"/></g></g>
</svg>